<?xml version="1.0" encoding="UTF-8"?>
<svg id="Layer_1" data-name="Layer 1" xmlns="http://www.w3.org/2000/svg" xmlns:xlink="http://www.w3.org/1999/xlink" viewBox="0 0 226.51 86">
  <defs>
    <style>
      .cls-1 {
        fill: url(#linear-gradient);
      }

      .cls-1, .cls-2 {
        stroke-width: 0px;
      }

      .cls-3 {
        fill: none;
        stroke: #fef0c7;
        stroke-width: 5px;
      }

      .cls-2 {
        fill: #fef0c7;
      }

      .cls-4 {
        isolation: isolate;
      }
    </style>
    <linearGradient id="linear-gradient" x1="113.25" y1="1916.65" x2="113.25" y2="2002.65" gradientTransform="translate(0 -1916.65)" gradientUnits="userSpaceOnUse">
      <stop offset="0" stop-color="#f4725d"/>
      <stop offset="1" stop-color="#ee5142"/>
    </linearGradient>
  </defs>
  <g>
    <path class="cls-1" d="M1.65,24C1.65,10.75,9.89,0,20.05,0h186.29C216.5,0,224.74,10.75,224.74,24l1.77,18.5-1.77,19.5c0,13.25-8.24,24-18.4,24H20.05c-10.16,0-18.4-10.75-18.4-24l-1.65-19.5,1.65-18.5Z"/>
    <path class="cls-3" d="M4.14,24.22v-.22c0-6.13,1.91-11.58,4.87-15.45,2.96-3.87,6.89-6.05,11.03-6.05h186.29c4.14,0,8.06,2.18,11.02,6.05,2.97,3.87,4.87,9.32,4.87,15.45v.24l1.76,18.27-1.74,19.27v.22c0,6.13-1.92,11.58-4.88,15.45-2.96,3.87-6.88,6.05-11.02,6.05H20.05c-4.14,0-8.06-2.18-11.03-6.05-2.97-3.87-4.87-9.32-4.87-15.45v-.21l-1.64-19.28,1.63-18.28h0Z"/>
  </g>
  <g class="cls-4">
    <g class="cls-4">
      <path class="cls-2" d="M42.13,29.29c0-1.19.23-2.19.69-2.98.46-.79,1.07-1.42,1.85-1.9.77-.47,1.64-.83,2.61-1.08.97-.25,1.96-.41,2.98-.5,1.02-.09,2.02-.12,3.01-.11.98.02,1.88.03,2.69.03,1.62,0,3.23.16,4.83.47,1.6.32,3.01.86,4.25,1.63,1.23.77,2.23,1.81,3.01,3.11.77,1.3,1.16,2.94,1.16,4.9,0,1.72-.33,3.44-1,5.14-.67,1.71-1.55,3.32-2.64,4.85-1.09,1.53-2.31,2.93-3.67,4.19-1.35,1.27-2.71,2.36-4.06,3.27-1.35.92-2.65,1.62-3.88,2.11-1.23.49-2.25.69-3.06.58-.49,1.55-.78,3.18-.87,4.9-.09,1.72-.11,3.42-.08,5.09.03,1.67.09,3.25.16,4.75.07,1.5,0,2.78-.21,3.85-.21,1.07-.61,1.88-1.19,2.43-.58.55-1.49.71-2.72.5-.32-2.78-.56-5.59-.74-8.44-.18-2.85-.33-5.68-.45-8.49-.12-2.81-.24-5.55-.34-8.23-.11-2.67-.25-5.22-.42-7.65-.18-2.43-.41-4.69-.71-6.8-.3-2.11-.69-3.99-1.19-5.64ZM56.63,27.76c-.6,0-1.33.02-2.19.05-.86.04-1.69.17-2.48.4-.79.23-1.47.61-2.03,1.13-.56.53-.84,1.28-.84,2.27v15.35c1.62,0,3.32-.43,5.12-1.29,1.79-.86,3.44-1.96,4.93-3.3,1.49-1.34,2.72-2.84,3.69-4.51.97-1.67,1.45-3.33,1.45-4.98,0-1.19-.22-2.13-.66-2.79-.44-.67-1.02-1.18-1.74-1.53-.72-.35-1.54-.57-2.45-.66-.91-.09-1.85-.13-2.79-.13Z"/>
      <path class="cls-2" d="M70.45,37.15c0-.77.26-1.28.79-1.53.53-.25,1.11-.37,1.74-.37.11,0,.32.03.66.08.33.05.54.08.61.08.14,1.2.26,2.65.37,4.35.11,1.71.24,3.54.4,5.51.16,1.97.36,4.01.61,6.12.25,2.11.58,4.17,1,6.2.42,2.02.94,3.94,1.56,5.75.61,1.81,1.38,3.38,2.29,4.72.21.35.4.62.58.79.18.18.35.31.53.4.18.09.38.14.61.16.23.02.52.03.87.03,1.58,0,3.11-.27,4.59-.82,1.48-.54,2.94-1.15,4.38-1.82,1.44-.67,2.91-1.27,4.4-1.82,1.49-.54,3.05-.82,4.67-.82.35,0,.8,0,1.34-.03.54-.02,1.05.02,1.53.11.47.09.89.28,1.24.58.35.3.53.76.53,1.4,0,.6-.53,1.24-1.58,1.92s-2.4,1.37-4.03,2.06-3.42,1.35-5.35,2c-1.93.65-3.79,1.23-5.56,1.74-1.78.51-3.35.92-4.72,1.21-1.37.3-2.29.45-2.74.45-1.41,0-2.65-.48-3.72-1.45-1.07-.97-2-2.26-2.79-3.88-.79-1.62-1.46-3.47-2-5.56-.55-2.09-.99-4.26-1.34-6.51-.35-2.25-.62-4.49-.82-6.72-.19-2.23-.33-4.31-.42-6.22-.09-1.92-.14-3.59-.16-5.04-.02-1.44-.03-2.46-.03-3.06Z"/>
      <path class="cls-2" d="M120.65,24.12c.25-.7.6-1.11,1.05-1.21s.97-.16,1.53-.16c.91,0,1.92.6,3.03,1.79,1.11,1.2,2.25,2.79,3.43,4.77,1.18,1.99,2.36,4.27,3.56,6.86s2.35,5.25,3.45,7.99,2.14,5.48,3.11,8.23,1.81,5.26,2.53,7.54c.72,2.29,1.28,4.26,1.69,5.93.4,1.67.61,2.82.61,3.45s-.15,1.23-.45,1.79c-.3.56-.82.84-1.56.84-.46,0-.85-.15-1.19-.45-.33-.3-.62-.66-.87-1.08s-.47-.85-.66-1.29c-.19-.44-.36-.8-.5-1.08-.18-.46-.5-1.28-.98-2.48-.47-1.19-.98-2.46-1.5-3.8-.53-1.34-1.03-2.59-1.5-3.77-.47-1.18-.82-2.01-1.03-2.5-2.71-.46-5.44-.9-8.2-1.32s-5.67-.83-8.73-1.21h-.63c-1.41,6.05-2.65,10.83-3.72,14.34-1.07,3.52-1.97,6.02-2.69,7.51-.72,1.49-1.29,2.11-1.71,1.85s-.69-1.17-.82-2.72c-.12-1.55-.1-3.6.08-6.17.18-2.57.5-5.41.98-8.52s1.07-6.36,1.79-9.76c.72-3.39,1.57-6.67,2.56-9.83.98-3.16,2.09-6.11,3.32-8.83,1.23-2.72,2.57-4.96,4.01-6.72ZM119.28,44.79c0,1.44.47,2.5,1.4,3.16.93.67,2.07,1.11,3.4,1.32s2.73.29,4.19.24,2.72-.08,3.77-.08c0-1.55-.25-3.22-.76-5.04-.51-1.81-1.15-3.62-1.92-5.43-.77-1.81-1.61-3.56-2.5-5.25s-1.71-3.22-2.45-4.59c-.42.42-.88,1.21-1.37,2.37s-.98,2.45-1.45,3.88-.91,2.82-1.32,4.19-.69,2.48-.87,3.32c0,.11-.02.4-.05.9-.04.49-.05.83-.05,1Z"/>
      <path class="cls-2" d="M167.11,42.89c-1.51-.32-3.03-1.02-4.56-2.11-1.53-1.09-2.99-2.42-4.38-3.98-1.39-1.56-2.7-3.3-3.93-5.22-1.23-1.92-2.29-3.85-3.19-5.8s-1.6-3.85-2.11-5.7-.76-3.49-.76-4.93c0-.18,0-.4.03-.69.02-.28.06-.54.13-.79.07-.25.2-.46.4-.63.19-.18.45-.26.76-.26.95,0,1.78.34,2.5,1.03s1.37,1.59,1.95,2.72c.58,1.13,1.12,2.41,1.63,3.85.51,1.44,1.03,2.91,1.56,4.4.53,1.5,1.08,2.96,1.66,4.4.58,1.44,1.23,2.72,1.95,3.85.72,1.13,1.55,2.03,2.48,2.72s2.01,1.03,3.24,1.03c.07,0,.18-.02.32-.05.14-.03.25-.05.32-.05,1.09-.98,2.07-2.29,2.95-3.9.88-1.62,1.7-3.37,2.45-5.25.76-1.88,1.49-3.81,2.19-5.8.7-1.99,1.43-3.84,2.19-5.56.76-1.72,1.56-3.22,2.4-4.51.84-1.28,1.81-2.17,2.9-2.66l2.48,2.58c.32.28.37.91.16,1.87-.21.97-.58,2.16-1.11,3.59s-1.18,3.01-1.95,4.75-1.59,3.54-2.45,5.41c-.86,1.86-1.72,3.73-2.58,5.59-.86,1.86-1.63,3.61-2.32,5.25s-1.24,3.1-1.66,4.4c-.42,1.3-.63,2.32-.63,3.06,0,2.32.33,4.58,1,6.78.67,2.2,1.4,4.38,2.19,6.54s1.52,4.33,2.19,6.51c.67,2.18,1,4.4,1,6.64v1.21c0,.49-.07.95-.21,1.37s-.4.75-.76.98-.91.25-1.61.08c-1.44-2.11-2.72-4.5-3.82-7.17-1.11-2.67-2.05-5.46-2.82-8.36s-1.34-5.83-1.71-8.78-.52-5.75-.45-8.38Z"/>
    </g>
  </g>
</svg>